<svg width="408" height="561" viewBox="0 0 408 561" fill="none" xmlns="http://www.w3.org/2000/svg">
<path d="M107.654 236.911L102.557 241.275C96.4119 246.536 92.6087 254.023 91.9837 262.088C91.3587 270.153 93.9631 278.136 99.2241 284.281L101.009 286.366C104.484 290.432 106.828 295.341 107.806 300.6C108.784 305.858 108.363 311.281 106.583 316.325L104.081 323.486C102.3 328.535 99.2215 333.027 95.1545 336.509C91.0875 339.991 86.1755 342.341 80.9124 343.323L78.3812 343.884C70.439 345.369 63.4104 349.944 58.8385 356.606C54.2666 363.268 52.5249 371.472 53.9957 379.417L55.216 386.001C56.701 393.944 61.2767 400.972 67.9387 405.544C74.6007 410.116 82.8046 411.858 90.7494 410.387L93.4789 410.057C98.7115 409.081 104.108 409.491 109.134 411.247C114.159 413.002 118.637 416.042 122.123 420.065L127.181 425.973C130.693 430.042 133.067 434.966 134.063 440.247C135.059 445.529 134.642 450.98 132.854 456.048L132.009 458.578C129.332 466.202 129.789 474.576 133.28 481.863C136.771 489.15 143.01 494.754 150.629 497.445L156.947 499.665C164.57 502.342 172.944 501.885 180.231 498.394C187.518 494.903 193.122 488.663 195.813 481.045L196.757 478.63C198.538 473.581 201.617 469.09 205.684 465.608C209.751 462.126 214.663 459.776 219.926 458.794L227.387 457.425C232.645 456.444 238.068 456.863 243.113 458.64C248.158 460.417 252.647 463.489 256.13 467.548L257.915 469.633C263.176 475.778 270.663 479.581 278.728 480.206C286.793 480.831 294.776 478.227 300.921 472.966L306.018 468.602C312.163 463.341 315.966 455.855 316.591 447.79C317.216 439.724 314.612 431.741 309.351 425.597L307.565 423.511C304.091 419.445 301.747 414.536 300.769 409.278C299.79 404.019 300.212 398.596 301.991 393.552L304.493 386.391C306.274 381.342 309.353 376.851 313.42 373.369C317.487 369.887 322.399 367.537 327.662 366.555L330.193 365.994C338.136 364.509 345.164 359.933 349.736 353.271C354.308 346.609 356.05 338.405 354.579 330.46L353.259 323.76C351.774 315.818 347.199 308.789 340.537 304.218C333.875 299.646 325.671 297.904 317.726 299.375L315.195 299.936C309.912 300.921 304.461 300.494 299.397 298.696C294.332 296.898 289.832 293.793 286.353 289.697L281.394 283.904C277.882 279.836 275.508 274.911 274.512 269.63C273.515 264.349 273.932 258.898 275.72 253.829L276.566 251.299C279.243 243.675 278.786 235.301 275.295 228.014C271.804 220.728 265.564 215.124 257.946 212.433L251.628 210.213C244.005 207.535 235.63 207.992 228.344 211.483C221.057 214.974 215.453 221.214 212.762 228.833L211.818 231.247C210.037 236.296 206.958 240.787 202.891 244.269C198.824 247.751 193.912 250.102 188.649 251.084L181.188 252.452C175.93 253.433 170.506 253.014 165.461 251.238C160.416 249.461 155.927 246.389 152.445 242.329L150.659 240.244C145.399 234.099 137.912 230.296 129.847 229.671C121.782 229.046 113.799 231.65 107.654 236.911Z" stroke="#002144" stroke-width="5" stroke-linecap="round" stroke-linejoin="round"/>
<path d="M234.042 389.692C253.236 373.259 255.474 344.378 239.041 325.184C222.608 305.99 193.727 303.752 174.533 320.185C155.339 336.618 153.101 365.499 169.534 384.693C185.967 403.887 214.848 406.125 234.042 389.692Z" stroke="#002144" stroke-width="5" stroke-linecap="round" stroke-linejoin="round"/>
<path d="M324.564 133.377L323.013 133.445C321.143 133.528 319.383 134.351 318.119 135.732C316.856 137.113 316.192 138.939 316.275 140.809L316.304 141.443C316.357 142.68 316.085 143.908 315.513 145.006C314.942 146.104 314.092 147.032 313.049 147.698L311.572 148.647C310.528 149.313 309.327 149.693 308.089 149.748C306.852 149.803 305.621 149.531 304.522 148.96L303.981 148.701C302.322 147.84 300.388 147.672 298.605 148.234C296.823 148.797 295.336 150.044 294.471 151.702L293.755 153.076C292.894 154.735 292.726 156.668 293.289 158.451C293.851 160.234 295.098 161.721 296.756 162.585L297.3 162.914C298.393 163.482 299.318 164.326 299.984 165.362C300.65 166.398 301.032 167.591 301.094 168.821L301.174 170.619C301.234 171.861 300.965 173.097 300.394 174.201C299.823 175.306 298.97 176.24 297.921 176.909L297.407 177.25C295.832 178.257 294.722 179.849 294.319 181.675C293.917 183.5 294.255 185.411 295.26 186.987L296.095 188.293C297.103 189.867 298.695 190.978 300.52 191.38C302.346 191.782 304.257 191.444 305.833 190.439L306.35 190.133C307.394 189.467 308.595 189.087 309.833 189.032C311.07 188.977 312.301 189.249 313.4 189.82L314.955 190.634C316.053 191.205 316.982 192.054 317.648 193.097C318.314 194.14 318.695 195.34 318.751 196.576L318.779 197.211C318.862 199.081 319.684 200.841 321.065 202.105C322.446 203.368 324.272 204.031 326.142 203.948L327.693 203.879C329.563 203.796 331.323 202.974 332.587 201.593C333.85 200.212 334.513 198.386 334.43 196.516L334.402 195.882C334.349 194.645 334.621 193.417 335.192 192.319C335.764 191.221 336.613 190.292 337.657 189.627L339.133 188.678C340.178 188.012 341.379 187.632 342.617 187.577C343.854 187.522 345.085 187.794 346.184 188.365L346.725 188.624C348.384 189.485 350.318 189.653 352.1 189.091C353.883 188.528 355.37 187.281 356.234 185.623L356.949 184.214C357.81 182.555 357.978 180.622 357.416 178.839C356.853 177.056 355.606 175.569 353.948 174.705L353.407 174.446C352.304 173.873 351.371 173.018 350.704 171.968C350.038 170.919 349.66 169.711 349.61 168.469L349.532 166.706C349.471 165.464 349.741 164.228 350.312 163.124C350.883 162.019 351.736 161.085 352.784 160.416L353.299 160.075C354.874 159.067 355.984 157.476 356.387 155.65C356.789 153.825 356.45 151.914 355.445 150.337L354.61 149.032C353.603 147.458 352.011 146.347 350.185 145.945C348.36 145.543 346.449 145.881 344.873 146.886L344.356 147.192C343.312 147.858 342.111 148.238 340.873 148.293C339.635 148.348 338.405 148.076 337.306 147.504L335.751 146.69C334.653 146.12 333.724 145.27 333.058 144.227C332.392 143.185 332.011 141.985 331.955 140.748L331.927 140.114C331.844 138.244 331.022 136.484 329.641 135.22C328.26 133.957 326.434 133.294 324.564 133.377Z" stroke="#002144" stroke-width="5" stroke-linecap="round" stroke-linejoin="round"/>
<path d="M325.822 179.238C331.663 178.979 336.188 174.034 335.928 168.193C335.669 162.352 330.724 157.828 324.884 158.087C319.043 158.346 314.518 163.291 314.777 169.132C315.037 174.972 319.982 179.497 325.822 179.238Z" stroke="#002144" stroke-width="5" stroke-linecap="round" stroke-linejoin="round"/>
<path d="M139.839 60.2723L136.899 63.2756C133.355 66.8961 131.395 71.7762 131.449 76.8421C131.504 81.908 133.568 86.7449 137.189 90.2886L138.418 91.4911C140.809 93.8367 142.542 96.77 143.442 99.9966C144.342 103.223 144.377 106.63 143.545 109.875L142.379 114.48C141.546 117.728 139.872 120.699 137.527 123.096C135.181 125.492 132.246 127.229 129.017 128.131L127.469 128.621C122.596 129.985 118.463 133.226 115.978 137.634C113.492 142.042 112.858 147.256 114.213 152.132L115.337 156.172C116.701 161.045 119.943 165.178 124.351 167.663C128.759 170.149 133.973 170.783 138.848 169.428L140.533 169.072C143.743 168.175 147.133 168.133 150.365 168.952C153.596 169.77 156.557 171.42 158.954 173.738L162.435 177.145C164.85 179.49 166.602 182.431 167.515 185.671C168.427 188.911 168.467 192.335 167.631 195.595L167.243 197.22C165.993 202.124 166.739 207.323 169.318 211.677C171.897 216.03 176.099 219.183 181 220.442L185.064 221.479C189.967 222.729 195.166 221.983 199.52 219.404C203.874 216.824 207.026 212.623 208.285 207.722L208.741 206.163C209.574 202.915 211.248 199.944 213.593 197.548C215.938 195.151 218.873 193.415 222.103 192.512L226.682 191.247C229.908 190.346 233.315 190.308 236.56 191.139C239.805 191.969 242.775 193.639 245.171 195.979L246.4 197.182C250.02 200.726 254.9 202.686 259.966 202.632C265.032 202.577 269.869 200.513 273.413 196.892L276.352 193.889C279.896 190.268 281.857 185.388 281.802 180.322C281.748 175.256 279.683 170.42 276.063 166.876L274.834 165.673C272.443 163.328 270.71 160.394 269.81 157.168C268.91 153.941 268.874 150.535 269.707 147.29L270.873 142.685C271.706 139.437 273.379 136.465 275.725 134.069C278.07 131.672 281.005 129.936 284.235 129.033L285.783 128.544C290.656 127.18 294.789 123.938 297.274 119.53C299.759 115.122 300.394 109.908 299.039 105.033L297.846 100.925C296.483 96.0524 293.241 91.9196 288.833 89.4343C284.425 86.949 279.211 86.3143 274.335 87.6696L272.787 88.1589C269.545 89.065 266.122 89.0983 262.863 88.2556C259.604 87.4129 256.626 85.724 254.23 83.36L250.817 80.0196C248.402 77.6747 246.649 74.7333 245.737 71.4933C244.825 68.2533 244.785 64.8297 245.621 61.5692L246.009 59.9441C247.259 55.0407 246.513 49.8415 243.933 45.4878C241.354 41.1341 237.153 37.9817 232.252 36.7227L228.188 35.6856C223.285 34.4353 218.085 35.1816 213.732 37.7609C209.378 40.3402 206.226 44.5415 204.967 49.4427L204.511 51.0011C203.677 54.2491 202.004 57.2206 199.659 59.6169C197.313 62.0132 194.378 63.7499 191.149 64.6524L186.57 65.9173C183.343 66.8189 179.937 66.8563 176.692 66.0257C173.446 65.1952 170.477 63.5258 168.08 61.1851L166.852 59.9826C163.231 56.4388 158.351 54.4785 153.285 54.5328C148.219 54.5872 143.382 56.6517 139.839 60.2723Z" stroke="white" stroke-width="5" stroke-linecap="round" stroke-linejoin="round"/>
<path d="M227.103 148.625C238.172 137.315 237.977 119.174 226.668 108.105C215.359 97.0359 197.218 97.2305 186.149 108.54C175.08 119.849 175.274 137.99 186.583 149.059C197.892 160.128 216.034 159.934 227.103 148.625Z" stroke="white" stroke-width="5" stroke-linecap="round" stroke-linejoin="round"/>
<path d="M297.205 219.593L295.957 220.673C294.452 221.975 293.527 223.822 293.383 225.806C293.24 227.791 293.891 229.751 295.192 231.256L295.634 231.767C296.494 232.762 297.077 233.967 297.324 235.259C297.572 236.551 297.475 237.886 297.044 239.129L296.437 240.893C296.006 242.138 295.254 243.246 294.258 244.108C293.262 244.97 292.057 245.554 290.764 245.802L290.142 245.944C288.19 246.319 286.467 247.453 285.351 249.098C284.235 250.743 283.817 252.763 284.189 254.715L284.498 256.333C284.873 258.285 286.008 260.008 287.652 261.124C289.297 262.24 291.317 262.658 293.269 262.286L293.94 262.201C295.226 261.955 296.554 262.048 297.792 262.474C299.031 262.899 300.136 263.641 300.999 264.626L302.251 266.073C303.12 267.069 303.71 268.278 303.962 269.575C304.213 270.873 304.118 272.215 303.685 273.464L303.48 274.087C302.831 275.966 302.954 278.025 303.822 279.813C304.69 281.601 306.232 282.971 308.11 283.623L309.667 284.161C311.545 284.81 313.604 284.687 315.392 283.819C317.18 282.951 318.551 281.409 319.203 279.532L319.432 278.936C319.864 277.692 320.615 276.584 321.611 275.722C322.607 274.86 323.812 274.276 325.106 274.028L326.939 273.681C328.231 273.433 329.566 273.529 330.809 273.96C332.052 274.391 333.16 275.14 334.022 276.135L334.464 276.645C335.766 278.15 337.612 279.076 339.597 279.219C341.582 279.363 343.542 278.712 345.047 277.41L346.295 276.33C347.8 275.028 348.725 273.182 348.869 271.197C349.012 269.212 348.361 267.252 347.06 265.747L346.618 265.237C345.758 264.241 345.175 263.036 344.928 261.744C344.68 260.452 344.777 259.118 345.208 257.875L345.815 256.11C346.246 254.866 346.998 253.757 347.994 252.895C348.99 252.034 350.195 251.449 351.488 251.201L352.11 251.06C354.062 250.684 355.785 249.55 356.901 247.905C358.017 246.261 358.435 244.241 358.063 242.288L357.73 240.642C357.354 238.69 356.22 236.967 354.575 235.851C352.931 234.735 350.91 234.317 348.958 234.689L348.336 234.83C347.038 235.079 345.697 234.981 344.449 234.545C343.2 234.11 342.09 233.352 341.229 232.349L340.001 230.93C339.132 229.934 338.542 228.726 338.29 227.428C338.039 226.13 338.134 224.789 338.567 223.54L338.772 222.916C339.421 221.038 339.298 218.978 338.43 217.19C337.562 215.402 336.02 214.032 334.142 213.38L332.585 212.842C330.707 212.193 328.648 212.316 326.86 213.184C325.072 214.052 323.701 215.594 323.049 217.472L322.82 218.067C322.388 219.311 321.637 220.42 320.641 221.281C319.645 222.143 318.44 222.727 317.146 222.976L315.313 223.322C314.021 223.57 312.686 223.474 311.443 223.043C310.2 222.613 309.092 221.863 308.23 220.869L307.788 220.358C306.486 218.853 304.64 217.927 302.655 217.784C300.67 217.641 298.71 218.291 297.205 219.593Z" stroke="white" stroke-width="5" stroke-linecap="round" stroke-linejoin="round"/>
<path d="M328.489 257.012C333.19 252.945 333.703 245.838 329.636 241.138C325.57 236.438 318.463 235.924 313.763 239.991C309.062 244.058 308.549 251.165 312.615 255.865C316.682 260.565 323.789 261.079 328.489 257.012Z" stroke="white" stroke-width="5" stroke-linecap="round" stroke-linejoin="round"/>
</svg>
